<svg xmlns="http://www.w3.org/2000/svg" xmlns:xlink="http://www.w3.org/1999/xlink" version="1.1" style="enable-background:new 0 0 469.333 469.333;" xml:space="preserve" width="469.333" height="469.333"><rect id="backgroundrect" width="100%" height="100%" x="0" y="0" fill="none" stroke="none"/>
















<g class="currentLayer" style=""><title>Layer 1</title><g id="svg_1" class="selected" fill="#4141e8" fill-opacity="1">
	<g id="svg_2" fill="#4141e8" fill-opacity="1">
		<g id="svg_3" fill="#4141e8" fill-opacity="1">
			<path d="M426.667,0h-384C19.146,0,0,19.135,0,42.667v384c0,23.531,19.146,42.667,42.667,42.667h384     c23.521,0,42.667-19.135,42.667-42.667v-384C469.333,19.135,450.188,0,426.667,0z M298.667,448h-256     c-11.771,0-21.333-9.573-21.333-21.333v-320h277.333V448z M448,426.667c0,11.76-9.563,21.333-21.333,21.333H320V106.667h128     V426.667z M448,85.333H21.333V42.667c0-11.76,9.563-21.333,21.333-21.333h384c11.771,0,21.333,9.573,21.333,21.333V85.333z" id="svg_4" fill="#4141e8" fill-opacity="1"/>
			<circle cx="53.33300018310547" cy="53.33300018310547" r="10.666999816894531" id="svg_5" fill="#4141e8" fill-opacity="1"/>
			<circle cx="96" cy="53.33300018310547" r="10.666999816894531" id="svg_6" fill="#4141e8" fill-opacity="1"/>
			<circle cx="138.66700744628906" cy="53.33300018310547" r="10.666999816894531" id="svg_7" fill="#4141e8" fill-opacity="1"/>
			<path d="M352,192h64c5.896,0,10.667-4.771,10.667-10.667c0-5.896-4.771-10.667-10.667-10.667h-64     c-5.896,0-10.667,4.771-10.667,10.667C341.333,187.229,346.104,192,352,192z" id="svg_8" fill="#4141e8" fill-opacity="1"/>
			<path d="M352,256h64c5.896,0,10.667-4.771,10.667-10.667c0-5.896-4.771-10.667-10.667-10.667h-64     c-5.896,0-10.667,4.771-10.667,10.667C341.333,251.229,346.104,256,352,256z" id="svg_9" fill="#4141e8" fill-opacity="1"/>
			<path d="M352,320h64c5.896,0,10.667-4.771,10.667-10.667c0-5.896-4.771-10.667-10.667-10.667h-64     c-5.896,0-10.667,4.771-10.667,10.667C341.333,315.229,346.104,320,352,320z" id="svg_10" fill="#4141e8" fill-opacity="1"/>
			<path d="M352,384h42.667c5.896,0,10.667-4.771,10.667-10.667s-4.771-10.667-10.667-10.667H352     c-5.896,0-10.667,4.771-10.667,10.667S346.104,384,352,384z" id="svg_11" fill="#4141e8" fill-opacity="1"/>
		</g>
	</g>
</g><g id="svg_12">
</g><g id="svg_13">
</g><g id="svg_14">
</g><g id="svg_15">
</g><g id="svg_16">
</g><g id="svg_17">
</g><g id="svg_18">
</g><g id="svg_19">
</g><g id="svg_20">
</g><g id="svg_21">
</g><g id="svg_22">
</g><g id="svg_23">
</g><g id="svg_24">
</g><g id="svg_25">
</g><g id="svg_26">
</g></g></svg>