<svg xmlns="http://www.w3.org/2000/svg" height="128" width="128" data-name="Layer 1"><rect id="backgroundrect" width="100%" height="100%" x="0" y="0" fill="none" stroke="none"/><g class="currentLayer" style=""><title>Layer 1</title><path d="m47.056 89.1a4.75 4.75 0 1 0 4.75 4.75 4.756 4.756 0 0 0 -4.75-4.75zm0 6a1.25 1.25 0 1 1 1.25-1.25 1.251 1.251 0 0 1 -1.25 1.25z" id="svg_1" class="" fill="#ffffff" fill-opacity="1"/><path d="m64 89.1a4.75 4.75 0 1 0 4.75 4.75 4.756 4.756 0 0 0 -4.75-4.75zm0 6a1.25 1.25 0 1 1 1.25-1.25 1.252 1.252 0 0 1 -1.25 1.25z" id="svg_2" class="" fill="#ffffff" fill-opacity="1"/><path d="m80.944 89.1a4.75 4.75 0 1 0 4.75 4.75 4.756 4.756 0 0 0 -4.75-4.75zm0 6a1.25 1.25 0 1 1 1.25-1.25 1.252 1.252 0 0 1 -1.25 1.25z" id="svg_3" class="" fill="#ffffff" fill-opacity="1"/><path d="m111.793 95.575c0-.491-.03-.98-.069-1.468-.011-.141-.019-.282-.034-.422-.049-.48-.118-.956-.2-1.429q-.048-.276-.1-.55c-.016-.077-.027-.156-.044-.233 0-.023-.02-.041-.026-.064a20.064 20.064 0 0 0 -17.311-15.638l-3.72-.427-2.638-6.125c.218-.085.434-.173.652-.26.515-.2 1.026-.42 1.537-.635.279-.118.562-.226.84-.347.029-.013.05-.035.078-.049.415-.181.834-.349 1.246-.537a9.643 9.643 0 0 0 5.625-8.752v-3.539h4.051a1.751 1.751 0 0 0 1.75-1.75v-18.35a1.751 1.751 0 0 0 -1.75-1.75h-1.2v-13.01a4.751 4.751 0 1 0 -3.5 0v11.516a33.66 33.66 0 0 0 -26.825-26.437c-.015 0-.027-.013-.043-.016-.143-.026-.287-.045-.431-.069-.265-.045-.531-.089-.8-.127-.078-.012-.155-.027-.233-.038-.178-.024-.357-.04-.535-.062-.252-.03-.5-.062-.757-.087-.33-.033-.661-.057-.992-.08-.177-.012-.354-.029-.533-.039-.527-.028-1.054-.047-1.579-.051-.174 0-.346.008-.52.009a33 33 0 0 0 -23.132 9.767 34.79 34.79 0 0 0 -9.73 18.724h-4.55a1.751 1.751 0 0 0 -1.75 1.75v18.35a1.751 1.751 0 0 0 1.75 1.75h4.051v3.539a9.642 9.642 0 0 0 5.629 8.752c.411.187.829.355 1.243.536.028.014.05.037.08.05.283.123.572.234.856.354.5.212 1.007.423 1.514.625.22.088.439.177.659.263l-2.637 6.125-3.721.427a20.064 20.064 0 0 0 -17.309 15.638c-.006.023-.021.041-.026.064-.017.077-.028.155-.044.232q-.055.276-.1.553c-.083.473-.152.95-.2 1.43-.014.137-.022.274-.033.412-.04.5-.066 1-.07 1.5 0 .044-.006.087-.006.131v25.769a1.751 1.751 0 0 0 1.75 1.75h92.1a1.75 1.75 0 0 0 1.75-1.75v-25.77c-.006-.052-.013-.103-.013-.155zm-3.5.161v3.749h-4.866v-5.885h4.716c.012.095.029.188.04.284.02.177.037.355.051.533.029.365.047.732.052 1.1.005.072.014.145.014.219zm-16.763 24.014h-11.142v-15a1.751 1.751 0 0 0 -1.75-1.75h-29.276a1.751 1.751 0 0 0 -1.75 1.75v15h-11.142v-32.94a9.3 9.3 0 0 1 1.5-5.113 7.933 7.933 0 0 1 2.43-2.397c2.011.692 4.038 1.337 6.065 1.874a69.279 69.279 0 0 0 17.535 2.436 69.006 69.006 0 0 0 17.55-2.449c2.062-.549 4.071-1.186 6.04-1.861a8.908 8.908 0 0 1 3.94 7.51zm-14.642 0h-25.776v-13.25h25.776zm-36.811-54.411c-.1-.042-.2-.089-.308-.133v-21.761c0-9.506 8.166-17.741 18.779-19.9h.006c.407-.084.816-.156 1.228-.221l.218-.03c.345-.052.692-.094 1.039-.133.109-.011.217-.025.326-.036.33-.032.662-.055.993-.075.114-.007.226-.017.34-.023.438-.021.877-.033 1.316-.033h.179c.731 0 1.455.044 2.174.1.115.009.231.015.345.026.633.058 1.258.143 1.878.241.232.038.464.075.693.118a25.835 25.835 0 0 1 11.962 5.471 18.252 18.252 0 0 1 6.986 14.023v13.512c-3.97 2.524-9.908 3.833-13.33 4.414a4.386 4.386 0 0 0 -3.673-2h-5.063a4.391 4.391 0 1 0 0 8.781h5.063a4.388 4.388 0 0 0 4.246-3.33 46.726 46.726 0 0 0 12.757-3.85v4.706c-.1.042-.2.089-.3.131-.388.16-.78.312-1.171.466q-.806.318-1.615.618c-.4.148-.808.294-1.213.435-.562.2-1.125.384-1.69.566-.366.119-.732.241-1.1.354-.921.282-1.845.552-2.769.8a56.89 56.89 0 0 1 -14.373 2.029q-1.656 0-3.389-.128c-.742-.054-1.5-.133-2.259-.223a63.545 63.545 0 0 1 -8.721-1.681c-.927-.245-1.852-.515-2.776-.8-.36-.11-.718-.229-1.076-.345-.573-.185-1.145-.375-1.716-.574q-.6-.21-1.2-.43c-.547-.2-1.091-.412-1.635-.626-.382-.151-.768-.298-1.151-.459zm19.874-45.576v-11.225h.035c.638-.09 1.284-.154 1.932-.2.09-.007.18-.015.271-.021.67-.042 1.343-.064 2.014-.062h.029.127c.531.006 1.065.028 1.6.063.172.01.343.027.515.041q.651.053 1.3.133l.273.035v11.217c-.237-.029-.479-.043-.718-.068s-.482-.049-.725-.069c-.795-.063-1.594-.108-2.4-.113h-.19c-.612 0-1.218.025-1.821.06-.153.009-.3.02-.457.031-.569.043-1.134.1-1.694.169-.031.004-.061.005-.091.009zm12.167 43.527a.891.891 0 0 1 -.89.891h-5.063a.891.891 0 1 1 0-1.781h5.063a.891.891 0 0 1 .89.89zm-28.471 7.12c.238.081.478.157.717.235.452.148.9.305 1.355.444q1.506.465 3.019.868a60.314 60.314 0 0 0 15.262 2.148 60.354 60.354 0 0 0 15.264-2.148c1.008-.267 2.015-.559 3.02-.869.449-.138.9-.293 1.344-.44.242-.08.484-.156.726-.238l2.374 5.513c-1.97.682-4.006 1.3-6.076 1.855a65.473 65.473 0 0 1 -16.652 2.332 65.778 65.778 0 0 1 -16.642-2.322c-2.031-.538-4.071-1.163-6.085-1.864zm56.283-18.81h-2.3v-13.221q0-.817-.04-1.629h2.34zm-1.2-37.016a1.249 1.249 0 0 1 .014 2.5h-.026a1.249 1.249 0 0 1 .012-2.5zm-4.6 23.8v20.26a6.123 6.123 0 0 1 -2.4 4.838v-20.5a21.688 21.688 0 0 0 -8.24-16.718 29.036 29.036 0 0 0 -11.941-5.872v-11.192a30.165 30.165 0 0 1 22.58 29.179zm-66.06 13.216v-14.85h2.382c-.048.729-.081 1.459-.081 2.191v12.659zm5.8 7.039v-19.7a31.138 31.138 0 0 1 9.2-21.931 30.022 30.022 0 0 1 13.381-7.757v11.194c-11.5 2.924-20.182 12.27-20.182 23v20.032a6.125 6.125 0 0 1 -2.398-4.838zm-14.17 37.097c0-.063 0-.127.006-.19 0-.383.023-.762.053-1.138.014-.174.031-.347.05-.52.011-.1.029-.194.041-.292h4.72v5.889h-4.87zm0 7.249h6.62a1.751 1.751 0 0 0 1.75-1.75v-9.389a1.751 1.751 0 0 0 -1.75-1.75h-5.62a16.563 16.563 0 0 1 13.7-10.848l1.145-.131c-.169.224-.348.439-.5.676a12.786 12.786 0 0 0 -2.075 7.017v32.94h-13.27zm75.33 16.765v-32.94a12.8 12.8 0 0 0 -2.56-7.693l1.14.131a16.563 16.563 0 0 1 13.7 10.848h-5.624a1.75 1.75 0 0 0 -1.75 1.75v9.389a1.75 1.75 0 0 0 1.75 1.75h6.614v16.765z" id="svg_4" class="" fill="#ffffff" fill-opacity="1"/><path d="m44.019 50.437a1.75 1.75 0 0 0 1.75-1.75v-5.242a12.809 12.809 0 0 1 4.685-9.407 1.75 1.75 0 0 0 -2.335-2.608c-3.773 3.378-5.85 7.645-5.85 12.015v5.242a1.749 1.749 0 0 0 1.75 1.75z" id="svg_5" class="" fill="#ffffff" fill-opacity="1"/></g></svg>