<svg xmlns="http://www.w3.org/2000/svg" enable-background="new 0 0 512 512" height="512" width="512"><rect id="backgroundrect" width="100%" height="100%" x="0" y="0" fill="none" stroke="none"/><g class="currentLayer" style=""><title>Layer 1</title><g id="svg_1" class="selected" fill="#ffffff" fill-opacity="1"><g id="svg_2" fill="#ffffff" fill-opacity="1"><path d="m504.538 195.292-85.177-168.951c-8.191-16.248-24.582-26.341-42.777-26.341h-55.934c-1.558 0-3.014.498-4.231 1.334l-.012-.018c-.305.209-30.868 20.908-60.407 20.908-29.45 0-59.919-20.575-60.403-20.905l-.012.018c-1.219-.838-2.676-1.337-4.235-1.337h-55.933c-18.195 0-34.587 10.093-42.778 26.341l-49.992 99.16c-1.864 3.698-.378 8.208 3.321 10.073 1.083.546 2.235.805 3.371.805 2.742 0 5.384-1.51 6.703-4.126l49.992-99.16c5.625-11.16 16.884-18.093 29.383-18.093h17.796l79.125 306.854v29.646c0 4.143 3.358 7.5 7.5 7.5s7.5-3.357 7.5-7.5v-136.576c0-16.288-2.106-32.532-6.26-48.282l-37.903-143.715c13.173 6.599 32.819 14.297 52.825 14.297s39.652-7.698 52.826-14.297l-37.903 143.715c-4.154 15.75-6.26 31.994-6.26 48.282l-.001 227.527h-17.325v-55.915c0-4.143-3.358-7.5-7.5-7.5s-7.5 3.357-7.5 7.5v63.409.006s0 .004 0 .006v47.043h-114.3v-63.872l28.319-7.299c3.968-1.022 6.38-5.041 5.418-9.023l-33.737-139.661v-112.944c0-4.143-3.358-7.5-7.5-7.5s-7.5 3.357-7.5 7.5v30.76l-12.376 25.431c-.763 1.566-.956 3.35-.547 5.043l45.345 187.712-67.892 17.499-49.33-206.13c-1.808-7.555-.878-15.535 2.62-22.473l19.417-38.514c1.864-3.698.378-8.208-3.321-10.073-3.7-1.864-8.209-.379-10.074 3.321l-19.417 38.515c-5.091 10.099-6.445 21.718-3.813 32.716l51.106 213.551c.468 1.957 1.703 3.644 3.426 4.681 1.178.709 2.517 1.074 3.868 1.074.626 0 1.255-.078 1.872-.237l39.116-10.082v67.505c0 4.143 3.358 7.5 7.5 7.5h129.301c1.989 0 3.897-.79 5.303-2.196 1.407-1.407 2.197-3.314 2.197-5.304v-47.049h17.325v47.049c0 1.989.79 3.896 2.197 5.304 1.406 1.406 3.314 2.196 5.303 2.196h129.301c4.142 0 7.5-3.357 7.5-7.5v-16.071c0-4.143-3.358-7.5-7.5-7.5s-7.5 3.357-7.5 7.5v8.571h-114.302v-47.042c0-.002 0-.004 0-.006s0-.004 0-.006v-128.091l79.125-306.855h17.796c12.498 0 23.757 6.933 29.383 18.093l85.177 168.951c3.498 6.938 4.428 14.918 2.62 22.474l-49.33 206.129-67.892-17.499 45.345-187.712c.409-1.693.216-3.477-.547-5.043l-12.376-25.431v-30.76c0-4.143-3.358-7.5-7.5-7.5s-7.5 3.357-7.5 7.5v112.943l-33.737 139.661c-.962 3.982 1.451 8.001 5.418 9.023l28.319 7.299v20.205c0 4.143 3.358 7.5 7.5 7.5s7.5-3.357 7.5-7.5v-16.339l39.116 10.082c.617.159 1.246.237 1.872.237 1.351 0 2.69-.365 3.868-1.074 1.724-1.037 2.958-2.724 3.426-4.681l51.106-213.55c2.632-10.998 1.278-22.617-3.813-32.716zm-272.201 19.632v46.855l-63.633-246.779h16.868l41.002 155.467c3.824 14.502 5.763 29.46 5.763 44.457zm47.326 0c0-14.997 1.939-29.955 5.764-44.456l41.002-155.468h16.868l-63.634 246.779z" id="svg_3" fill="#ffffff" fill-opacity="1"/><circle cx="200.01300048828125" cy="336.81298828125" r="10.10200023651123" id="svg_4" fill="#ffffff" fill-opacity="1"/><circle cx="200.01300048828125" cy="300.4469909667969" r="10.10200023651123" id="svg_5" fill="#ffffff" fill-opacity="1"/><path d="m301.294 362.353c-3.748 1.764-5.356 6.232-3.592 9.979l42.788 90.914c1.278 2.716 3.976 4.309 6.791 4.309 1.07 0 2.157-.23 3.189-.716 3.748-1.764 5.356-6.232 3.592-9.979l-42.788-90.914c-1.765-3.749-6.232-5.357-9.98-3.593z" id="svg_6" fill="#ffffff" fill-opacity="1"/><path d="m161.531 466.839c1.032.485 2.119.716 3.189.716 2.814 0 5.513-1.593 6.791-4.309l42.788-90.914c1.764-3.747.155-8.216-3.592-9.979-3.747-1.764-8.216-.156-9.98 3.593l-42.788 90.914c-1.764 3.746-.156 8.215 3.592 9.979z" id="svg_7" fill="#ffffff" fill-opacity="1"/></g></g></g></svg>